# xmcd
#
# Track frame offsets: 
#        150
#        5160
#        25355
#        41002
#        62517
#        79905
#        99577
#        124032
#        177452
#
# Disc length: 2824 seconds
#
# Revision: 2
# Processed by: cddbd v1.5.2PL0 Copyright (c) Steve Scherf et al.
# Submitted via: ExactAudioCopy v0.99pb4
#
DISCID=740b0609
DTITLE=Canned Heat - King Biscuit Flower Hour: Canned Heat In Concert
DYEAR=1995
DGENRE=Classic Rock
TTITLE0=Intro
TTITLE1=On the Road Again
TTITLE2=Bullfrog Blues
TTITLE3=Chicken Shack Boogie
TTITLE4=Stand Up (For What You Are)
TTITLE5=Goin' Up the Country
TTITLE6=Don't Know Where She Went (She Split)
TTITLE7=Human Condition
TTITLE8=Shake 'n Boogie
EXTD=
EXTT0=
EXTT1=
EXTT2=
EXTT3=
EXTT4=
EXTT5=
EXTT6=
EXTT7=
EXTT8=
PLAYORDER=
